<?xml version="1.0" encoding="UTF-8" standalone="no"?>
<!DOCTYPE svg PUBLIC "-//W3C//DTD SVG 1.1//EN" "http://www.w3.org/Graphics/SVG/1.1/DTD/svg11.dtd">
<svg width="100%" height="100%" viewBox="0 0 219 63" version="1.1" xmlns="http://www.w3.org/2000/svg" xmlns:xlink="http://www.w3.org/1999/xlink" xml:space="preserve" xmlns:serif="http://www.serif.com/" style="fill-rule:evenodd;clip-rule:evenodd;stroke-linejoin:round;stroke-miterlimit:2;">
    <g transform="matrix(1,0,0,1,-492.051,-205.667)">
        <g transform="matrix(1.33333,0,0,1.33333,0,0)">
            <g transform="matrix(1.18491,0,0,1.18491,423.457,200.336)">
                <path d="M-2.165,-2.166C-2.165,-3.069 -2.006,-3.756 -1.688,-4.228C-1.37,-4.7 -0.807,-4.935 0,-4.935C0.812,-4.935 1.378,-4.7 1.696,-4.228C2.014,-3.756 2.173,-3.069 2.173,-2.166C2.173,-1.262 2.012,-0.574 1.688,-0.103C1.369,0.369 0.807,0.605 0,0.605C-0.813,0.605 -1.376,0.372 -1.688,-0.094C-2.006,-0.566 -2.165,-1.257 -2.165,-2.166ZM0,-4.33C-0.614,-4.33 -1.026,-4.134 -1.236,-3.743C-1.423,-3.39 -1.518,-2.864 -1.518,-2.166C-1.518,-1.466 -1.423,-0.94 -1.236,-0.589C-1.026,-0.196 -0.614,0 0,0C0.596,0 0.997,-0.177 1.202,-0.528C1.412,-0.875 1.517,-1.421 1.517,-2.166C1.517,-2.91 1.412,-3.455 1.202,-3.802C0.997,-4.154 0.596,-4.33 0,-4.33ZM4.066,0.153L4.253,-0.435C4.651,-0.157 5.134,-0.018 5.702,-0.018C6.111,-0.018 6.433,-0.092 6.67,-0.239C6.906,-0.386 7.023,-0.608 7.023,-0.904C7.023,-1.074 6.971,-1.221 6.866,-1.343C6.76,-1.466 6.623,-1.563 6.452,-1.637C6.282,-1.711 6.095,-1.781 5.894,-1.846C5.692,-1.912 5.489,-1.985 5.285,-2.068C5.08,-2.15 4.892,-2.246 4.722,-2.357C4.552,-2.468 4.414,-2.62 4.309,-2.813C4.203,-3.007 4.151,-3.231 4.151,-3.487C4.151,-3.969 4.324,-4.33 4.67,-4.569C5.018,-4.814 5.441,-4.936 5.941,-4.936C6.56,-4.936 7.074,-4.791 7.483,-4.501L7.296,-3.904C6.932,-4.182 6.486,-4.322 5.958,-4.322C5.605,-4.322 5.325,-4.254 5.114,-4.117C4.904,-3.981 4.799,-3.779 4.799,-3.512C4.799,-3.302 4.869,-3.123 5.012,-2.975C5.154,-2.827 5.332,-2.718 5.545,-2.647C5.757,-2.576 5.987,-2.495 6.235,-2.404C6.482,-2.313 6.712,-2.219 6.925,-2.123C7.139,-2.026 7.316,-1.877 7.458,-1.675C7.6,-1.473 7.671,-1.228 7.671,-0.938C7.671,-0.432 7.481,-0.048 7.1,0.212C6.714,0.468 6.247,0.596 5.702,0.596C5.043,0.596 4.497,0.449 4.066,0.153ZM14.157,0.52L13.492,0.52L12.921,-0.929L10.501,-0.929L9.937,0.52L9.273,0.52L11.378,-4.867L12.051,-4.867L14.157,0.52ZM12.691,-1.534L11.71,-4.048L10.731,-1.534L12.691,-1.534ZM15.65,0.153L15.837,-0.435C16.235,-0.157 16.718,-0.018 17.286,-0.018C17.695,-0.018 18.018,-0.092 18.254,-0.239C18.49,-0.386 18.607,-0.608 18.607,-0.904C18.607,-1.074 18.555,-1.221 18.45,-1.343C18.344,-1.466 18.207,-1.563 18.036,-1.637C17.866,-1.711 17.679,-1.781 17.478,-1.846C17.276,-1.912 17.073,-1.985 16.869,-2.068C16.664,-2.15 16.476,-2.246 16.306,-2.357C16.136,-2.468 15.998,-2.62 15.893,-2.813C15.787,-3.007 15.735,-3.231 15.735,-3.487C15.735,-3.969 15.908,-4.33 16.254,-4.569C16.602,-4.814 17.025,-4.936 17.525,-4.936C18.144,-4.936 18.658,-4.791 19.067,-4.501L18.88,-3.904C18.516,-4.182 18.07,-4.322 17.542,-4.322C17.189,-4.322 16.909,-4.254 16.698,-4.117C16.488,-3.981 16.383,-3.779 16.383,-3.512C16.383,-3.302 16.453,-3.123 16.596,-2.975C16.738,-2.827 16.916,-2.718 17.129,-2.647C17.341,-2.576 17.571,-2.495 17.819,-2.404C18.066,-2.313 18.296,-2.219 18.509,-2.123C18.723,-2.026 18.9,-1.877 19.042,-1.675C19.184,-1.473 19.255,-1.228 19.255,-0.938C19.255,-0.432 19.065,-0.048 18.684,0.212C18.298,0.468 17.831,0.596 17.286,0.596C16.627,0.596 16.081,0.449 15.65,0.153ZM21.811,-2.157C21.811,-1.407 21.931,-0.86 22.173,-0.517C22.415,-0.172 22.825,-0.001 23.405,-0.001C23.99,-0.001 24.467,-0.134 24.837,-0.401L24.931,0.204C24.51,0.471 24.01,0.604 23.43,0.604C22.635,0.604 22.056,0.386 21.696,-0.052C21.335,-0.489 21.155,-1.18 21.155,-2.123C21.155,-3.072 21.335,-3.78 21.696,-4.245C22.056,-4.712 22.626,-4.944 23.405,-4.944C23.916,-4.944 24.408,-4.814 24.88,-4.552L24.786,-3.939C24.331,-4.205 23.862,-4.339 23.379,-4.339C22.811,-4.339 22.407,-4.167 22.168,-3.824C21.93,-3.48 21.811,-2.924 21.811,-2.157ZM26.704,-2.166C26.704,-3.069 26.863,-3.756 27.181,-4.228C27.499,-4.7 28.062,-4.935 28.869,-4.935C29.681,-4.935 30.247,-4.7 30.564,-4.228C30.883,-3.756 31.042,-3.069 31.042,-2.166C31.042,-1.262 30.881,-0.574 30.557,-0.103C30.238,0.369 29.676,0.605 28.869,0.605C28.056,0.605 27.493,0.372 27.181,-0.094C26.863,-0.566 26.704,-1.257 26.704,-2.166ZM28.869,-4.33C28.255,-4.33 27.843,-4.134 27.633,-3.743C27.446,-3.39 27.351,-2.864 27.351,-2.166C27.351,-1.466 27.446,-0.94 27.633,-0.589C27.843,-0.196 28.255,0 28.869,0C29.465,0 29.866,-0.177 30.071,-0.528C30.281,-0.875 30.386,-1.421 30.386,-2.166C30.386,-2.91 30.281,-3.455 30.071,-3.802C29.866,-4.154 29.465,-4.33 28.869,-4.33ZM41.693,-3.273C41.693,-2.443 41.273,-1.94 40.432,-1.764L41.889,0.52L41.147,0.52L39.741,-1.679L38.42,-1.679L38.42,0.52L37.772,0.52L37.772,-4.866L39.741,-4.866C41.043,-4.866 41.693,-4.335 41.693,-3.273ZM39.741,-4.261L38.42,-4.261L38.42,-2.284L39.741,-2.284C40.207,-2.284 40.541,-2.366 40.743,-2.531C40.944,-2.696 41.045,-2.943 41.045,-3.273C41.045,-3.608 40.944,-3.857 40.743,-4.018C40.541,-4.181 40.207,-4.261 39.741,-4.261ZM47.08,-1.985L44.489,-1.985L44.489,-0.085L47.421,-0.085L47.421,0.521L43.841,0.521L43.841,-4.866L47.421,-4.866L47.421,-4.261L44.489,-4.261L44.489,-2.59L47.08,-2.59L47.08,-1.985ZM49.22,0.154L49.407,-0.434C49.805,-0.156 50.288,-0.017 50.856,-0.017C51.265,-0.017 51.587,-0.091 51.824,-0.238C52.06,-0.385 52.177,-0.607 52.177,-0.903C52.177,-1.074 52.125,-1.22 52.02,-1.342C51.914,-1.465 51.777,-1.562 51.606,-1.636C51.436,-1.71 51.249,-1.78 51.048,-1.845C50.846,-1.911 50.643,-1.984 50.439,-2.067C50.234,-2.149 50.046,-2.245 49.876,-2.357C49.706,-2.467 49.568,-2.619 49.463,-2.812C49.357,-3.006 49.305,-3.23 49.305,-3.486C49.305,-3.968 49.478,-4.329 49.824,-4.568C50.172,-4.813 50.595,-4.935 51.095,-4.935C51.714,-4.935 52.228,-4.79 52.637,-4.5L52.45,-3.903C52.086,-4.181 51.64,-4.321 51.112,-4.321C50.759,-4.321 50.479,-4.253 50.268,-4.116C50.058,-3.98 49.953,-3.778 49.953,-3.511C49.953,-3.301 50.023,-3.122 50.166,-2.974C50.308,-2.826 50.486,-2.717 50.699,-2.646C50.911,-2.575 51.141,-2.494 51.389,-2.403C51.636,-2.312 51.866,-2.218 52.079,-2.122C52.293,-2.025 52.47,-1.876 52.612,-1.674C52.754,-1.473 52.825,-1.227 52.825,-0.937C52.825,-0.431 52.635,-0.047 52.254,0.213C51.868,0.469 51.401,0.597 50.856,0.597C50.197,0.597 49.651,0.45 49.22,0.154ZM54.947,-4.866L55.594,-4.866L55.594,0.521L54.947,0.521L54.947,-4.866ZM59.566,0.52L57.982,0.52L57.982,-4.866L59.566,-4.866C60.408,-4.866 61.007,-4.656 61.365,-4.236C61.729,-3.821 61.911,-3.139 61.911,-2.19C61.911,-1.269 61.726,-0.588 61.357,-0.144C60.988,0.298 60.39,0.52 59.566,0.52ZM58.629,-0.085L59.566,-0.085C60.191,-0.085 60.629,-0.244 60.879,-0.562C61.129,-0.892 61.254,-1.429 61.254,-2.173C61.254,-2.9 61.135,-3.429 60.897,-3.758C60.658,-4.094 60.214,-4.261 59.566,-4.261L58.629,-4.261L58.629,-0.085ZM67.314,-1.985L64.723,-1.985L64.723,-0.085L67.655,-0.085L67.655,0.521L64.075,0.521L64.075,-4.866L67.655,-4.866L67.655,-4.261L64.723,-4.261L64.723,-2.59L67.314,-2.59L67.314,-1.985ZM70.366,0.52L69.719,0.52L69.719,-4.867L70.358,-4.867L72.991,-0.657L72.991,-4.867L73.639,-4.867L73.639,0.52L72.991,0.52L70.366,-3.691L70.366,0.52ZM76.46,-2.156C76.46,-1.406 76.58,-0.859 76.822,-0.515C77.064,-0.171 77.474,-0 78.054,-0C78.639,-0 79.116,-0.133 79.486,-0.4L79.58,0.205C79.159,0.472 78.659,0.605 78.079,0.605C77.284,0.605 76.705,0.387 76.345,-0.051C75.984,-0.488 75.804,-1.179 75.804,-2.122C75.804,-3.071 75.984,-3.778 76.345,-4.244C76.705,-4.711 77.275,-4.943 78.054,-4.943C78.565,-4.943 79.057,-4.813 79.529,-4.551L79.435,-3.938C78.98,-4.204 78.511,-4.338 78.028,-4.338C77.46,-4.338 77.056,-4.166 76.817,-3.822C76.579,-3.479 76.46,-2.923 76.46,-2.156ZM84.864,-1.985L82.273,-1.985L82.273,-0.085L85.205,-0.085L85.205,0.521L81.625,0.521L81.625,-4.866L85.205,-4.866L85.205,-4.261L82.273,-4.261L82.273,-2.59L84.864,-2.59L84.864,-1.985ZM-17.42,-38.602L-17.42,-10.813L-21.634,-10.813L-21.634,-28.465L-29.363,-10.813L-34.121,-10.813L-41.713,-28.349L-41.713,-10.813L-45.927,-10.813L-45.927,-38.602L-41.519,-38.602L-31.732,-15.92L-21.828,-38.602L-17.42,-38.602ZM-6.86,-14.697C-9.63,-17.467 -11.015,-20.807 -11.015,-24.718C-11.015,-28.627 -9.63,-31.967 -6.86,-34.737C-4.09,-37.508 -0.749,-38.894 3.161,-38.894C7.071,-38.894 10.41,-37.508 13.182,-34.737C15.952,-31.967 17.336,-28.627 17.336,-24.718C17.336,-20.807 15.952,-17.467 13.182,-14.697C10.41,-11.927 7.071,-10.542 3.161,-10.542C-0.749,-10.542 -4.09,-11.927 -6.86,-14.697ZM-3.869,-31.747C-5.811,-29.805 -6.782,-27.462 -6.782,-24.718C-6.782,-21.973 -5.811,-19.63 -3.869,-17.687C-1.927,-15.745 0.415,-14.775 3.161,-14.775C5.905,-14.775 8.249,-15.745 10.191,-17.687C12.133,-19.63 13.103,-21.973 13.103,-24.718C13.103,-27.462 12.133,-29.805 10.191,-31.747C8.249,-33.689 5.905,-34.66 3.161,-34.66C0.415,-34.66 -1.927,-33.689 -3.869,-31.747ZM27.897,-38.602L27.897,-17.533L40.305,-38.602L45.199,-38.602L28.829,-10.813L23.664,-10.813L23.664,-38.602L27.897,-38.602ZM71.071,-10.813L71.071,-38.602L78.373,-38.602C82.205,-38.602 85.48,-37.242 88.199,-34.524C90.905,-31.806 92.258,-28.53 92.258,-24.698C92.258,-20.878 90.905,-17.61 88.199,-14.891C85.48,-12.173 82.205,-10.813 78.373,-10.813L71.071,-10.813ZM75.266,-15.008L78.373,-15.008C81.04,-15.008 83.324,-15.96 85.228,-17.862C87.117,-19.752 88.063,-22.031 88.063,-24.698C88.063,-27.377 87.117,-29.663 85.228,-31.552C83.324,-33.456 81.04,-34.408 78.373,-34.408L75.266,-34.408L75.266,-15.008ZM65.013,-15.355L65.013,-11.12L51.094,-11.12L51.094,-15.355L65.013,-15.355ZM59.822,-26.978L59.822,-22.743L45.903,-22.743L45.903,-26.978L59.822,-26.978ZM65.013,-38.602L65.013,-34.366L51.094,-34.366L51.094,-38.602L65.013,-38.602Z" style="fill:url(#_Linear1);"/>
            </g>
        </g>
    </g>
    <defs>
        <linearGradient id="_Linear1" x1="0" y1="0" x2="1" y2="0" gradientUnits="userSpaceOnUse" gradientTransform="matrix(138.184,0,0,-29.3321,-45.9268,-22.2086)"><stop offset="0" style="stop-color:rgb(160,130,90);stop-opacity:1"/><stop offset="1" style="stop-color:rgb(228,220,183);stop-opacity:1"/></linearGradient>
    </defs>
</svg>
