<?xml version="1.0" encoding="UTF-8" standalone="no"?>
<!DOCTYPE svg PUBLIC "-//W3C//DTD SVG 1.1//EN" "http://www.w3.org/Graphics/SVG/1.1/DTD/svg11.dtd">
<svg width="100%" height="100%" viewBox="0 0 117 34" version="1.1" xmlns="http://www.w3.org/2000/svg" xmlns:xlink="http://www.w3.org/1999/xlink" xml:space="preserve" xmlns:serif="http://www.serif.com/" style="fill-rule:evenodd;clip-rule:evenodd;stroke-linejoin:round;stroke-miterlimit:2;">
    <g transform="matrix(1,0,0,1,-60,-304)">
        <g id="Logo-Light" serif:id="Logo Light" transform="matrix(0.914062,0,0,0.265625,59.9631,304)">
            <rect x="0" y="0" width="128" height="128" style="fill:none;"/>
            <clipPath id="_clip1">
                <rect x="0" y="0" width="128" height="128"/>
            </clipPath>
            <g clip-path="url(#_clip1)">
                <g transform="matrix(4.46595e-17,-2.5098,0.525128,1.1065e-16,-16.279,45.1765)">
                    <path d="M-18,43.5L-18,31L18,54.315L18,82.685L-18,106L-18,76.403L-5.798,68.5L-16.235,61.74C-16.946,63.424 -17.941,64.88 -19.164,65.962C-21.758,68.257 -25.016,68.553 -27.804,66.748L-33,63.383L-33,33.785L-18,43.5ZM15,56.97L-15,37.54L-15,45.443L15,64.872L15,56.97ZM15,77.372L15,69.47L-15,50.04L-15,55.419C-15,56.238 -15.058,57.046 -15.169,57.833L15,77.372ZM13.503,81L7.402,77.049L-15,91.557L-15,99.46L13.503,81ZM-15,79.057L-15,86.96L3.852,74.75L-2.249,70.799L-15,79.057ZM-30,60.728L-26.536,62.972C-24.677,64.175 -22.505,63.978 -20.776,62.448C-20.043,61.799 -19.433,60.949 -18.972,59.968L-30,52.826L-30,60.728ZM-30,40.326L-30,48.228L-18.014,55.991C-18.005,55.801 -18,55.611 -18,55.419L-18,48.097L-30,40.326Z" style="fill:rgb(189,178,135);"/>
                </g>
                <g transform="matrix(0.965812,0,0,1,4.37607,0)">
                    <g transform="matrix(1.06981,0,0,3.55556,-68.0469,-740.491)">
                        <path d="M105.959,233.823L111.743,216.543L114.719,216.543L120.503,233.823L118.283,233.823L112.871,217.791L113.543,217.791L108.179,233.823L105.959,233.823Z" style="fill:white;fill-rule:nonzero;"/>
                    </g>
                    <g transform="matrix(1.06981,0,0,3.55556,-68.0469,-740.491)">
                        <rect x="122.111" y="216.183" width="2.136" height="17.64" style="fill:white;fill-rule:nonzero;"/>
                    </g>
                    <g transform="matrix(1.06981,0,0,3.55556,-68.0469,-740.491)">
                        <path d="M134.291,233.823C133.519,233.979 132.76,234.043 132.014,234.015C131.268,233.987 130.602,233.835 130.016,233.559C129.43,233.283 128.987,232.851 128.687,232.263C128.431,231.755 128.293,231.239 128.273,230.715C128.253,230.191 128.243,229.595 128.243,228.927L128.243,217.263L130.379,217.263L130.379,228.831C130.379,229.363 130.385,229.816 130.397,230.19C130.409,230.564 130.491,230.887 130.643,231.159C130.931,231.675 131.389,231.976 132.017,232.062C132.645,232.148 133.403,232.123 134.291,231.987L134.291,233.823ZM125.615,222.627L125.615,220.863L134.291,220.863L134.291,222.627L125.615,222.627Z" style="fill:white;fill-rule:nonzero;"/>
                    </g>
                    <g transform="matrix(1.06981,0,0,3.55556,-68.0469,-740.491)">
                        <path d="M139.823,234.183C138.855,234.183 138.044,234.006 137.39,233.652C136.736,233.298 136.244,232.828 135.914,232.242C135.584,231.656 135.419,231.015 135.419,230.319C135.419,229.639 135.548,229.05 135.806,228.552C136.064,228.054 136.43,227.638 136.904,227.304C137.378,226.97 137.943,226.707 138.599,226.515C139.215,226.351 139.904,226.206 140.666,226.08C141.428,225.954 142.201,225.84 142.985,225.738C143.769,225.636 144.503,225.535 145.187,225.435L144.419,225.879C144.439,224.731 144.208,223.88 143.726,223.326C143.244,222.772 142.411,222.495 141.227,222.495C140.443,222.495 139.756,222.674 139.166,223.032C138.576,223.39 138.163,223.967 137.927,224.763L135.899,224.151C136.207,223.015 136.81,222.123 137.708,221.475C138.606,220.827 139.787,220.503 141.251,220.503C142.423,220.503 143.431,220.713 144.275,221.133C145.119,221.553 145.727,222.187 146.099,223.035C146.283,223.435 146.399,223.869 146.447,224.337C146.495,224.805 146.519,225.295 146.519,225.807L146.519,233.823L144.623,233.823L144.623,230.715L145.067,231.003C144.579,232.055 143.896,232.848 143.018,233.382C142.14,233.916 141.075,234.183 139.823,234.183ZM140.147,232.395C140.915,232.395 141.581,232.258 142.145,231.984C142.709,231.71 143.163,231.346 143.507,230.892C143.851,230.438 144.075,229.943 144.179,229.407C144.295,229.007 144.36,228.562 144.374,228.072C144.388,227.582 144.395,227.203 144.395,226.935L145.139,227.259C144.443,227.359 143.758,227.453 143.084,227.541C142.41,227.629 141.773,227.722 141.173,227.82C140.573,227.918 140.035,228.035 139.559,228.171C139.203,228.283 138.872,228.428 138.566,228.606C138.26,228.784 138.013,229.011 137.825,229.287C137.637,229.563 137.543,229.903 137.543,230.307C137.543,230.663 137.632,231 137.81,231.318C137.988,231.636 138.268,231.895 138.65,232.095C139.032,232.295 139.531,232.395 140.147,232.395Z" style="fill:white;fill-rule:nonzero;"/>
                    </g>
                    <g transform="matrix(1.06981,0,0,3.55556,-68.0469,-740.491)">
                        <path d="M153.767,234.159C152.931,234.159 152.216,234.027 151.622,233.763C151.028,233.499 150.535,233.148 150.143,232.71C149.751,232.272 149.443,231.784 149.219,231.246C148.995,230.708 148.837,230.16 148.745,229.602C148.653,229.044 148.607,228.519 148.607,228.027L148.607,220.863L150.767,220.863L150.767,227.355C150.767,227.963 150.822,228.552 150.932,229.122C151.042,229.692 151.231,230.204 151.499,230.658C151.767,231.112 152.127,231.471 152.579,231.735C153.031,231.999 153.599,232.131 154.283,232.131C154.819,232.131 155.306,232.04 155.744,231.858C156.182,231.676 156.557,231.402 156.869,231.036C157.181,230.67 157.422,230.208 157.592,229.65C157.762,229.092 157.847,228.439 157.847,227.691L159.251,228.123C159.251,229.375 159.025,230.452 158.573,231.354C158.121,232.256 157.485,232.949 156.665,233.433C155.845,233.917 154.879,234.159 153.767,234.159ZM158.087,233.823L158.087,230.355L157.847,230.355L157.847,220.863L159.995,220.863L159.995,233.823L158.087,233.823Z" style="fill:white;fill-rule:nonzero;"/>
                    </g>
                    <g transform="matrix(1.06981,0,0,3.55556,-68.0469,-740.491)">
                        <path d="M162.563,233.823L162.563,220.863L164.471,220.863L164.471,223.995L164.159,223.587C164.311,223.187 164.509,222.819 164.753,222.483C164.997,222.147 165.271,221.871 165.575,221.655C165.907,221.387 166.286,221.181 166.712,221.037C167.138,220.893 167.571,220.807 168.011,220.779C168.451,220.751 168.863,220.779 169.247,220.863L169.247,222.867C168.799,222.751 168.306,222.721 167.768,222.777C167.23,222.833 166.735,223.027 166.283,223.359C165.863,223.659 165.54,224.02 165.314,224.442C165.088,224.864 164.931,225.321 164.843,225.813C164.755,226.305 164.711,226.807 164.711,227.319L164.711,233.823L162.563,233.823Z" style="fill:white;fill-rule:nonzero;"/>
                    </g>
                    <g transform="matrix(1.06981,0,0,3.55556,-68.0469,-740.491)">
                        <path d="M176.687,234.183C175.471,234.183 174.447,233.881 173.615,233.277C172.783,232.673 172.153,231.854 171.725,230.82C171.297,229.786 171.083,228.623 171.083,227.331C171.083,226.027 171.297,224.86 171.725,223.83C172.153,222.8 172.784,221.988 173.618,221.394C174.452,220.8 175.479,220.503 176.699,220.503C177.899,220.503 178.932,220.802 179.798,221.4C180.664,221.998 181.33,222.812 181.796,223.842C182.262,224.872 182.495,226.035 182.495,227.331C182.495,228.627 182.262,229.792 181.796,230.826C181.33,231.86 180.664,232.678 179.798,233.28C178.932,233.882 177.895,234.183 176.687,234.183ZM170.723,233.823L170.723,216.543L172.871,216.543L172.871,224.283L172.631,224.283L172.631,233.823L170.723,233.823ZM176.423,232.227C177.275,232.227 177.982,232.011 178.544,231.579C179.106,231.147 179.527,230.561 179.807,229.821C180.087,229.081 180.227,228.251 180.227,227.331C180.227,226.419 180.088,225.595 179.81,224.859C179.532,224.123 179.108,223.539 178.538,223.107C177.968,222.675 177.243,222.459 176.363,222.459C175.519,222.459 174.821,222.665 174.269,223.077C173.717,223.489 173.306,224.062 173.036,224.796C172.766,225.53 172.631,226.375 172.631,227.331C172.631,228.279 172.765,229.122 173.033,229.86C173.301,230.598 173.715,231.177 174.275,231.597C174.835,232.017 175.551,232.227 176.423,232.227Z" style="fill:white;fill-rule:nonzero;"/>
                    </g>
                    <g transform="matrix(-1.15066,1.09833e-15,3.65874e-16,-3.55556,180.765,884.244)">
                        <path d="M109.259,227.775L114.766,227.775L114.766,229.779L109.888,229.779L109.259,227.775Z" style="fill:white;"/>
                    </g>
                </g>
            </g>
        </g>
    </g>
</svg>
