<?xml version="1.0" encoding="UTF-8" standalone="no"?>
<!DOCTYPE svg PUBLIC "-//W3C//DTD SVG 1.1//EN" "http://www.w3.org/Graphics/SVG/1.1/DTD/svg11.dtd">
<svg width="100%" height="100%" viewBox="0 0 36 34" version="1.1" xmlns="http://www.w3.org/2000/svg" xmlns:xlink="http://www.w3.org/1999/xlink" xml:space="preserve" xmlns:serif="http://www.serif.com/" style="fill-rule:evenodd;clip-rule:evenodd;stroke-linejoin:round;stroke-miterlimit:2;">
    <g transform="matrix(1,0,0,1,0,-304)">
        <g id="Logomark-Light" serif:id="Logomark Light" transform="matrix(0.28125,0,0,0.265625,1.42109e-14,304)">
            <rect x="0" y="0" width="128" height="128" style="fill:none;"/>
            <clipPath id="_clip1">
                <rect x="0" y="0" width="128" height="128"/>
            </clipPath>
            <g clip-path="url(#_clip1)">
                <g transform="matrix(1.45143e-16,-2.5098,1.70667,1.1065e-16,-52.9067,45.1765)">
                    <path d="M-18,43.5L-18,31L18,54.315L18,82.685L-18,106L-18,76.403L-5.798,68.5L-16.235,61.74C-16.946,63.424 -17.941,64.88 -19.164,65.962C-21.758,68.257 -25.016,68.553 -27.804,66.748L-33,63.383L-33,33.785L-18,43.5ZM15,56.97L-15,37.54L-15,45.443L15,64.872L15,56.97ZM15,77.372L15,69.47L-15,50.04L-15,55.419C-15,56.238 -15.058,57.046 -15.169,57.833L15,77.372ZM13.503,81L7.402,77.049L-15,91.557L-15,99.46L13.503,81ZM-15,79.057L-15,86.96L3.852,74.75L-2.249,70.799L-15,79.057ZM-30,60.728L-26.536,62.972C-24.677,64.175 -22.505,63.978 -20.776,62.448C-20.043,61.799 -19.433,60.949 -18.972,59.968L-30,52.826L-30,60.728ZM-30,40.326L-30,48.228L-18.014,55.991C-18.005,55.801 -18,55.611 -18,55.419L-18,48.097L-30,40.326Z" style="fill:rgb(189,178,135);"/>
                </g>
            </g>
        </g>
    </g>
</svg>
