<?xml version="1.0" encoding="UTF-8" standalone="no"?>
<!DOCTYPE svg PUBLIC "-//W3C//DTD SVG 1.1//EN" "http://www.w3.org/Graphics/SVG/1.1/DTD/svg11.dtd">
<svg width="100%" height="100%" viewBox="0 0 1619 333" version="1.1" xmlns="http://www.w3.org/2000/svg" xmlns:xlink="http://www.w3.org/1999/xlink" xml:space="preserve" xmlns:serif="http://www.serif.com/" style="fill-rule:evenodd;clip-rule:evenodd;stroke-linejoin:round;stroke-miterlimit:2;">
    <g transform="matrix(1,0,0,1,-1104.09,-1239.97)">
        <g transform="matrix(-1997.54,0,0,1997.54,3150.5,1406.14)">
            <path d="M0.883,-0.081L0.941,0.052L0.999,-0.081L1.024,-0.081L1.024,0.081L1,0.081L1,-0.021L0.955,0.081L0.927,0.081L0.882,-0.022L0.882,0.081L0.857,0.081L0.857,-0.081L0.883,-0.081Z" style="fill:url(#_Linear1);fill-rule:nonzero;"/>
        </g>
        <g transform="matrix(-1997.54,0,0,1997.54,3150.5,1406.03)">
            <path d="M0.795,-0.059C0.812,-0.043 0.82,-0.023 0.82,-0C0.82,0.023 0.812,0.043 0.795,0.059C0.779,0.075 0.76,0.083 0.737,0.083C0.714,0.083 0.694,0.075 0.678,0.059C0.662,0.043 0.653,0.023 0.653,-0C0.653,-0.023 0.662,-0.043 0.678,-0.059C0.694,-0.075 0.714,-0.083 0.737,-0.083C0.76,-0.083 0.779,-0.075 0.795,-0.059ZM0.778,0.041C0.789,0.03 0.795,0.016 0.795,-0C0.795,-0.016 0.789,-0.03 0.778,-0.041C0.766,-0.053 0.753,-0.058 0.737,-0.058C0.721,-0.058 0.707,-0.053 0.695,-0.041C0.684,-0.03 0.678,-0.016 0.678,-0C0.678,0.016 0.684,0.03 0.695,0.041C0.707,0.053 0.721,0.058 0.737,0.058C0.753,0.058 0.766,0.053 0.778,0.041Z" style="fill:url(#_Linear2);fill-rule:nonzero;"/>
        </g>
        <g transform="matrix(-1997.54,0,0,1997.54,3150.5,1406.14)">
            <path d="M0.519,-0.081L0.592,0.042L0.592,-0.081L0.616,-0.081L0.616,0.081L0.586,0.081L0.49,-0.081L0.519,-0.081Z" style="fill:url(#_Linear3);fill-rule:nonzero;"/>
        </g>
        <g transform="matrix(-1997.54,0,0,1997.54,3150.5,1406.14)">
            <path d="M0.338,-0.081L0.338,0.081L0.296,0.081C0.273,0.081 0.254,0.074 0.238,0.058C0.222,0.042 0.214,0.022 0.214,0C0.214,-0.022 0.222,-0.042 0.238,-0.058C0.254,-0.074 0.273,-0.081 0.296,-0.081L0.338,-0.081ZM0.314,-0.057L0.296,-0.057C0.28,-0.057 0.266,-0.051 0.255,-0.04C0.244,-0.029 0.239,-0.016 0.239,0C0.239,0.016 0.244,0.029 0.255,0.04C0.266,0.051 0.28,0.057 0.296,0.057L0.314,0.057L0.314,-0.057Z" style="fill:url(#_Linear4);fill-rule:nonzero;"/>
        </g>
        <g transform="matrix(1997.54,0,0,-1997.54,1493.75,1540.51)">
            <rect x="0.374" y="-0.012" width="0.082" height="0.025" style="fill:url(#_Linear5);"/>
        </g>
        <g transform="matrix(1997.54,0,0,-1997.54,1372.15,1404.35)">
            <rect x="0.404" y="-0.012" width="0.082" height="0.025" style="fill:url(#_Linear6);"/>
        </g>
        <g transform="matrix(1997.54,0,0,-1997.54,1493.75,1268.2)">
            <rect x="0.374" y="-0.012" width="0.082" height="0.025" style="fill:url(#_Linear7);"/>
        </g>
    </g>
    <defs>
        <linearGradient id="_Linear1" x1="0" y1="0" x2="1" y2="0" gradientUnits="userSpaceOnUse" gradientTransform="matrix(1,0,0,-1,0,-1.26155e-06)"><stop offset="0" style="stop-color:rgb(228,220,183);stop-opacity:1"/><stop offset="1" style="stop-color:rgb(133,103,63);stop-opacity:1"/></linearGradient>
        <linearGradient id="_Linear2" x1="0" y1="0" x2="1" y2="0" gradientUnits="userSpaceOnUse" gradientTransform="matrix(1,0,0,-1,0,-1.05546e-06)"><stop offset="0" style="stop-color:rgb(228,220,183);stop-opacity:1"/><stop offset="1" style="stop-color:rgb(133,103,63);stop-opacity:1"/></linearGradient>
        <linearGradient id="_Linear3" x1="0" y1="0" x2="1" y2="0" gradientUnits="userSpaceOnUse" gradientTransform="matrix(1,0,0,-1,0,-1.26155e-06)"><stop offset="0" style="stop-color:rgb(228,220,183);stop-opacity:1"/><stop offset="1" style="stop-color:rgb(133,103,63);stop-opacity:1"/></linearGradient>
        <linearGradient id="_Linear4" x1="0" y1="0" x2="1" y2="0" gradientUnits="userSpaceOnUse" gradientTransform="matrix(1,0,0,-1,0,-1.26155e-06)"><stop offset="0" style="stop-color:rgb(228,220,183);stop-opacity:1"/><stop offset="1" style="stop-color:rgb(133,103,63);stop-opacity:1"/></linearGradient>
        <linearGradient id="_Linear5" x1="0" y1="0" x2="1" y2="0" gradientUnits="userSpaceOnUse" gradientTransform="matrix(-1,0,-0,1,0.829393,2.22045e-16)"><stop offset="0" style="stop-color:rgb(228,220,183);stop-opacity:1"/><stop offset="1" style="stop-color:rgb(133,103,63);stop-opacity:1"/></linearGradient>
        <linearGradient id="_Linear6" x1="0" y1="0" x2="1" y2="0" gradientUnits="userSpaceOnUse" gradientTransform="matrix(-1,0,-0,1,0.890272,0)"><stop offset="0" style="stop-color:rgb(228,220,183);stop-opacity:1"/><stop offset="1" style="stop-color:rgb(133,103,63);stop-opacity:1"/></linearGradient>
        <linearGradient id="_Linear7" x1="0" y1="0" x2="1" y2="0" gradientUnits="userSpaceOnUse" gradientTransform="matrix(-1,0,-0,1,0.829393,0)"><stop offset="0" style="stop-color:rgb(228,220,183);stop-opacity:1"/><stop offset="1" style="stop-color:rgb(133,103,63);stop-opacity:1"/></linearGradient>
    </defs>
</svg>
